<?xml version="1.0" encoding="utf-8"?>
<!-- Generator: Adobe Illustrator 23.0.6, SVG Export Plug-In . SVG Version: 6.00 Build 0)  -->
<svg version="1.1" id="Layer_1" xmlns="http://www.w3.org/2000/svg" xmlns:xlink="http://www.w3.org/1999/xlink" x="0px" y="0px"
	 viewBox="0 0 208 215" style="enable-background:new 0 0 208 215;" xml:space="preserve">
<style type="text/css">
	.st0{fill:#3A62CA;}
	.st1{fill:#FFFFFF;}
</style>
<path class="st0" d="M177.5,61.1c0.2-2.7,3.1-6.5,4.7-9.7c1.6-3.2-9-21-11-20.7c-2,0.3-9.7,9.7-8.2,13.3c0.8,2,6.5,6.7,6.1,10.8
	c-0.3,2.8,5.6,36.1,5.8,52.2c0.1,7.7-5.9,11.7-11.1,11.1c-5.9-0.6-8.8-5.9-10-8.8l-0.3-1.7c0,0-0.1,0-0.3,0c0-0.1,0-0.1,0-0.1l0,0.1
	c-1.1-0.1-5.2-0.5-9.9-1.4l-1.3-11.9l-7.5-12.7c0-4.9,7.2-14.4,7.2-14.4S140.8,32,97.4,17.9C54,3.8,19.3,36.1,10.3,59.5
	c-9.8,25.5-2.7,67,47.2,70.1c0,0-2.6,14.3,10.5,29.8l-1.8,11c-7.6-1-6.2-9.7-9.6-11.4c-6.5-3.1-3.1,13.6,3.6,18.7
	c0.4,0.3,0.8,0.6,1.2,0.9h-0.1c-15.9,9.3-17.7-3.6-16.7-10.8c1-7.2-3.6-4.5-4.5-3.4c-9.5,11.4,1.1,30.3,15.2,29.2
	c17-1.4,27.2-14.9,27.2-14.9l-0.6,0c0.8-0.4,1.6-0.8,2.4-1.3c1.6-0.9,3.1-2.2,4.3-3.6l0.2,0.6c-0.1,4.1,2.6,10.2,3.7,11l-2.1-6.7
	l0,0l2.6,7.9c-1.1,1.3-1.1,1.9-1.1,1.9c1.5,0.9,2,2.1,4,2c0.4,0.9,3.3,8,7,8c4,0-1.6-9.3-1.6-9.3c7.7-1.8,16-7.2,16-7.2
	c9.9-7.2,10.5-17.3,8.7-26.3c0.2-0.1,0.5-0.3,0.7-0.4l0,0.1c0.8-0.2,1.5-0.5,2.2-0.8l0,0l0,0c3.5-1.3,6.1-3,8.1-4.9l0.1,0.1l-0.1,0
	c-0.7,9.2,20.2,31.8,16.2,47.8c-2.9,11.7,15.4-0.5,9-17c-5.1-13.2-14.8-34.7-6.6-47l1-1l0,0.3c6.4-0.8,16.6,7.2,28.5-5.6
	C194.5,117.3,176.5,77,177.5,61.1z M66.8,169.6l-0.1,0.8c-0.2,0-0.4,0-0.5,0C66.3,170.3,66.5,170.1,66.8,169.6z M106.7,177.2
	c-2.2,1.2-4,2.3-5.6,3.2c0-0.2,0-0.4,0-0.6l0-11.5l8.2-8.7c0,0-0.1,0-0.2,0.1l0.2-0.5C112.3,169.7,110.7,175,106.7,177.2z"/>
<g>
	<path class="st1" d="M144.6,112.8c-1.2,0-2.5-0.2-3.9-0.5c-4-1.2-7.2-4.1-9.5-8.8c-0.4-0.7-0.1-1.6,0.7-2c0.7-0.4,1.6-0.1,2,0.7
		c1.9,3.9,4.5,6.3,7.6,7.2c5.2,1.5,10.3-1.5,10.3-1.6c0.7-0.4,1.6-0.2,2.1,0.5s0.2,1.6-0.5,2.1C153.2,110.5,149.4,112.8,144.6,112.8
		z"/>
</g>
<g>
	<path class="st1" d="M119.3,116c-0.8,0-1.5-0.7-1.5-1.5s0.7-1.5,1.5-1.5l0,0c0.1,0,6.3-0.1,8.8-3.4c0.5-0.7,1.4-0.8,2.1-0.3
		c0.7,0.5,0.8,1.4,0.3,2.1C127.1,115.9,119.7,116,119.3,116z"/>
</g>
<g>
	<path class="st1" d="M113.5,102.8c0-3.1-0.6-6.3-1.9-9.4c-0.7-4.2-4.9-12.5-12.7-18.4c-7.9-5.9-21.5-6.1-31,5.2
		c-5.9,7-7.5,15.9-4.5,25.1c3.4,10.7,12.8,20.5,21.7,22.8c2.1,0.5,4.4,0.9,6.9,0.9c4.7,0,9.8-1.2,13.9-4.5c5.5-4.4,8-11.6,7.6-21.4
		C113.5,102.9,113.5,102.9,113.5,102.8z M104,122.1c-5.4,4.3-12.9,4.4-18.2,3.1c-8-2.1-16.5-11-19.6-20.8c-1.9-5.8-2.7-14.4,4-22.3
		c8.4-9.9,20.1-9.9,27-4.8c0.9,0.7,1.7,1.4,2.5,2.1c-1.2-0.6-2.4-1.1-3.6-1.5c-4.7-1.5-9.5-1.1-13.5,1.1C73,84,70,97.6,75.9,109.3
		c3.2,6.3,8.5,11,14.5,12.9c1.9,0.6,3.8,0.9,5.6,0.9c2.8,0,5.5-0.7,7.9-2c1.1-0.6,2.1-1.3,3-2.1C106.1,120.2,105.1,121.2,104,122.1z
		"/>
	<path class="st1" d="M183.8,87.7c-2.7-10.5-5.2-20.5-4.8-26.5c0.1-1.4,1.4-3.6,2.6-5.7c0.7-1.2,1.4-2.3,1.9-3.5
		c1.9-4-6.5-17.1-8.2-19.3c-2.3-3.1-3.4-3.7-4.4-3.5c-2.2,0.3-6.1,5.1-7.9,8.3c-1.7,3-2.2,5.3-1.5,7c0.3,0.8,1.1,1.7,2.1,2.9
		c1.7,2.1,4.1,4.9,3.9,7.1c-0.1,1.2,0.4,5.2,1.6,13.5c1.6,11.5,4.1,28.8,4.2,38.8c0.1,3.9-1.6,6.2-3,7.4c-1.8,1.6-4.2,2.4-6.4,2.2
		c-5.8-0.6-8.3-6.5-9-8.7c1.8-0.9,3.3-2.5,4.3-4.7c2.5-5.3,2.3-13.5-0.5-21.4c-3.5-9.6-9.8-16.5-15.8-17.9c-0.6-3.6-2-9.8-5.7-16.7
		c-5.3-9.9-16.4-23.2-39.3-30.7C52.3,1.6,17.5,36.8,8.9,58.9c-6.3,16.4-4.8,35.8,3.9,49.3c6,9.3,18.2,20.6,42.9,22.6
		c-0.7,4.1-0.9,14.5,10.7,27.5c0.2,0.2,0.4,0.3,0.6,0.4c0.2,6.2-0.9,8.9-1.4,9.9c-3.1-0.8-4.1-3.4-5-6.1c-0.8-2.1-1.5-4.1-3.3-5
		c-3-1.5-4.5,0.4-4.9,1c-2.6,4.3,1.5,15.3,6.3,19.6c-4.3,2.1-7.6,2.6-9.6,1.2c-2.8-1.9-3.4-7.1-2.8-11.5c0.5-3.4-0.2-5.5-1.9-6.3
		c-2-0.9-4.4,0.7-5.3,1.7c-4.7,5.6-5.3,13.6-1.6,20.7c3.5,6.8,10,11,16.7,11c0.4,0,0.9,0,1.3-0.1c17.4-1.4,27.8-14.9,28.3-15.5
		c0-0.1,0.1-0.1,0.1-0.2c0.4-0.2,0.8-0.4,1.3-0.7c0.9-0.5,1.7-1.1,2.5-1.7c0.6,3.8,2.5,8,3.8,9.3c-0.7,0.9-1,1.7-0.9,2.4
		c0.1,0.4,0.3,0.8,0.7,1.1c0.9,0.6,1.9,1,3.1,1.2c1.1,2.1,4.5,7.8,8.7,7.8c1.2,0,2.1-0.5,2.7-1.4c1.2-2,0.2-5.5-0.7-7.7
		c1-0.4,2.1-0.8,3.2-1.2c5.4-2.3,9.8-5.2,10.1-5.3c10.2-7.4,11-17.9,9.6-26.6c3.3-1.1,5.9-2.4,8-4c0.8,3.9,3.5,8.8,6.5,14.2
		c5.2,9.6,11.7,21.5,9.5,30.5c-0.9,3.8,0.1,5.4,1.2,6c0.5,0.3,1.1,0.5,1.7,0.5c1.2,0,2.7-0.6,4.1-1.8c2.4-2,4.4-5.1,5.4-8.6
		c1.3-4.3,1.1-8.9-0.6-13.3c-0.4-1.1-0.9-2.2-1.4-3.4c-5-12.6-12.5-31.6-5.4-42.3c1.5-0.2,3.4,0.2,5.6,0.7c2.3,0.5,4.9,1.1,7.7,1.1
		c4.8,0,10.3-1.6,16-7.8C192.5,121.6,188.1,104.4,183.8,87.7z M55.3,192c-6,0.5-11.9-3.2-15.1-9.3c-2.5-4.7-3.4-11.8,1.2-17.4
		c0.3-0.4,1.4-1,1.7-0.9c0,0,0.5,0.5,0.2,3.1c-0.7,5.2,0,11.7,4.1,14.4c3.3,2.2,8,1.6,14-1.7c2.4,1.4,5.7,2.6,9.8,2.6
		c1.9,0,3.9-0.3,6.1-0.9C73,185.8,65.4,191.1,55.3,192z M103.2,195.6c0,0-0.1,0-0.2,0c-1.7,0-3.7-2.4-5.1-4.6
		c1.3-0.1,2.7-0.3,4.2-0.7C103.1,192.7,103.6,195.1,103.2,195.6z M184.2,126.1c-8,8.6-14.9,7.1-20.9,5.8c-2.4-0.5-4.6-1-6.7-0.7
		c-0.4,0.1-0.8,0.3-1,0.6c-0.4,0.1-0.7,0.3-1,0.6c-8.1,11.9-0.5,31.1,5,45.1c0.5,1.2,0.9,2.3,1.3,3.4c3.3,8.5-0.6,15.3-3.4,18
		c-1.6,1.5-2.7,1.7-2.9,1.6c-0.1-0.1-0.4-0.9,0.1-2.8c2.5-10.1-4.3-22.6-9.7-32.6c-3.3-6.1-6.5-11.9-6.4-15.2c3-3.2,4.4-6.7,4.9-9.7
		c1.6-9.1-3-19.2-4.4-20.3c-0.7-0.5-1.6-0.4-2.1,0.3c-0.5,0.6-0.4,1.5,0.2,2c0.7,1,5.6,10.7,2.9,19.5c-1.7,5.4-6,9.4-12.8,11.6
		c-0.7-3.2-1.7-6.1-2.4-8.4c-3.3-10.1-0.9-20.1-0.9-20.2c0.2-0.8-0.3-1.6-1.1-1.8c-0.8-0.2-1.6,0.3-1.8,1.1c-0.1,0.4-2.6,11,1,21.9
		c4.2,12.8,6.5,25.8-5.4,34.5c-4.4,2.9-16.3,9.3-22.5,7.2c1.1-1.3,4.2-4.2,13.3-9.1c5.4-2.9,6.4-9.5,3.2-20.3
		c-2.3-7.5-3.7-11.8-4.6-14.4c-0.5-1.4-0.8-2.5-0.9-2.8c-0.1-0.8-0.9-1.4-1.7-1.3c-0.8,0.1-1.4,0.9-1.3,1.7c0.1,0.5,0.3,1.3,1,3.3
		c0.8,2.5,2.3,6.8,4.4,14c-1.7,1-4.2,3-6,5.9c-2,3.1-3.9,8.1-2.2,15c-2.4,1.6-4.4,3-5.9,4.3c-0.9-1-3.3-6.6-3-10
		c7-8.9,7.7-24.1,8-31.3c0.1-1.2,0.1-2.5,0.2-2.9c0.3-0.6,0.1-1.4-0.5-1.8c-0.7-0.5-1.6-0.4-2.1,0.3c-0.4,0.6-0.5,1.3-0.6,4.3
		c-0.3,7.5-1.2,27.4-11.8,33.4c-8.5,4.9-16.5,5-22.5,0.5c-5-3.8-7.5-14-6.2-16.2c0.1-0.1,0.2-0.3,1,0.1c0.8,0.4,1.3,1.8,1.8,3.3
		c1.2,3.4,3,8.6,10.6,8.3c3.5-0.1,6.1-1.4,7.9-3.6c3.3-4.2,3.5-11.7,0.9-24.5c-0.2-0.8-1-1.3-1.8-1.2c-0.8,0.2-1.3,1-1.2,1.8
		c2.4,11.7,2.3,18.7-0.4,22c-1.1,1.4-2.8,2.2-5.1,2.4c1.2-3.1,2.1-9.3-0.3-21.8c-3.4-17.9-0.6-21.8-0.6-21.8c0,0,0,0,0,0
		c0.6-0.6,0.6-1.5,0-2.1c-0.6-0.6-1.5-0.6-2.1,0c-0.7,0.7-3.9,5.1-0.2,24.5c0.5,2.4,0.8,4.5,1,6.4c-11.1-14-7.7-23.9-7.7-24
		c0.2-0.4,0.1-0.9-0.1-1.3c-0.3-0.4-0.7-0.7-1.2-0.7c-19.5-1.2-34.1-8.6-42.3-21.4C5.4,91.2,7.2,71.8,11.7,60
		C19.9,38.8,53.3,5.1,97,19.3c33,10.7,40.9,34.2,42.7,43.8c-3.3-2.3-8.1-3.7-13.3-0.1c-8.3,5.7-2,21.5-1.7,22.2
		c0.3,0.8,1.2,1.1,2,0.8c0.8-0.3,1.1-1.2,0.8-2c-1.6-3.9-4.6-15,0.6-18.6c3.3-2.3,6.2-1.9,8.4-0.8c-1.7,0.9-3.1,2.5-4.1,4.6
		c-2.5,5.3-2.3,13.5,0.5,21.4c3.9,10.9,11.5,18.2,18.2,18.2c0.3,0,0.7,0,1-0.1c0.9,2.7,4,10,11.6,10.8c3.1,0.3,6.4-0.8,8.8-3
		c2.6-2.4,4-5.8,3.9-9.7c-0.2-10.3-2.5-27-4.2-39.2c-0.9-6.1-1.7-11.9-1.6-12.8c0.4-3.4-2.5-6.8-4.5-9.3c-0.7-0.8-1.5-1.8-1.6-2.2
		c-0.1-0.2-0.3-0.9,0.5-2.8c1.6-3.6,5.1-7.4,6.3-8.3c2.6,2.2,10.4,16,9.7,18.4c-0.5,1-1.2,2.2-1.8,3.3c-1.5,2.5-2.9,4.9-3,7
		c-0.4,6.5,2.2,16.7,4.9,27.4C184.8,103.6,189.2,120.8,184.2,126.1z M108.4,161.8c1.8,7.5,1,12.2-2.5,14.1c-1.4,0.8-2.7,1.5-3.9,2.2
		C100.2,169,105.7,163.6,108.4,161.8z"/>
</g>
<g>
	<ellipse transform="matrix(0.9903 -0.1388 0.1388 0.9903 -11.0872 21.2796)" class="st0" cx="147" cy="90.1" rx="9.3" ry="12.5"/>
</g>
<g>
	<ellipse transform="matrix(0.6046 -0.7965 0.7965 0.6046 -0.6973 139.2854)" class="st0" cx="139.9" cy="70.3" rx="3.5" ry="2.8"/>
</g>
<g>
	
		<ellipse transform="matrix(0.9971 -7.546870e-02 7.546870e-02 0.9971 -7.5762 7.147)" class="st0" cx="90.8" cy="103.8" rx="12.4" ry="13.5"/>
</g>
<g>
	<ellipse transform="matrix(0.6046 -0.7965 0.7965 0.6046 -28.57 110.4688)" class="st0" cx="97" cy="84" rx="4.2" ry="3.4"/>
</g>
</svg>
